<?xml version="1.0" encoding="utf-8"?>
<!-- Svg Vector Icons : http://www.onlinewebfonts.com/icon -->
<!DOCTYPE svg PUBLIC "-//W3C//DTD SVG 1.1//EN" "http://www.w3.org/Graphics/SVG/1.1/DTD/svg11.dtd">
<svg version="1.1" xmlns="http://www.w3.org/2000/svg" xmlns:xlink="http://www.w3.org/1999/xlink" x="0px" y="0px" viewBox="0 0 256 256" enable-background="new 0 0 256 256" xml:space="preserve">
<metadata> Svg Vector Icons : http://www.onlinewebfonts.com/icon </metadata>
<g><g><g><path fill="#000000" d="M118.6,10.8c-7.1,2.5-11.8,8.4-12.6,15.9l-0.3,3h-4.4c-10.3,0-17,3.6-20.5,11.2c-1.4,2.9-1.5,3.8-1.5,8.2c0,4.3,0.2,5.4,1.4,7.9c1.9,4,4.6,6.9,8.4,9l3.3,1.8h35.4h35.4l3-1.5c3.8-1.9,7.9-6.2,9.3-10.1c1.5-3.9,1.5-10.2,0.1-14c-1.4-3.7-3.4-6.5-6.2-8.6c-4-2.9-6.5-3.6-13.2-3.9l-6.1-0.2l-0.3-3.3c-0.2-1.8-0.8-4.4-1.4-5.7c-1.5-3.4-5.3-7.2-8.9-9.1c-2.9-1.4-3.5-1.5-10.7-1.6C122.6,9.9,120.8,10.1,118.6,10.8z M135.8,21.1c3.3,2.2,4.1,4.1,4.1,9.4c0,5,0.8,7.8,2.5,8.8c0.6,0.4,4.4,0.6,9.1,0.6c6.7,0,8.4,0.2,10.2,1c3.1,1.4,4.6,3.8,4.8,7.7c0.3,4-1.1,6.9-4.1,8.6c-1.9,1.1-2.4,1.1-34.6,1.1c-36,0-34.4,0.2-37-3.4c-2.7-3.5-2.4-8.5,0.6-11.8c2.4-2.7,4.1-3.1,13.4-3.1h7.8l1.5-1.5c1.5-1.5,1.5-1.7,1.5-6.5c0-5.6,1-8.5,3.5-10.2c2.3-1.6,2.6-1.6,8.9-1.7C133.4,19.9,134.2,20,135.8,21.1z"/><path fill="#000000" d="M125.5,28.5c-1.8,1.7-1.7,4,0.1,5.5c2.3,1.8,4.5,1.3,5.9-1.4c0.5-1,0.5-1.6,0-2.8C130.3,26.9,127.6,26.4,125.5,28.5z"/><path fill="#000000" d="M43.9,31.6c-3.9,2.7-3.6-6.7-3.6,106.7v101.7l1.2,1.7c0.6,0.9,1.8,2.3,2.6,2.8l1.5,1.1l81.6,0.2l81.6,0.1l2.3-1.1c1.4-0.6,2.8-1.9,3.5-3l1.2-1.9V138.2c0-101.7,0-101.8-1.1-103.6c-0.6-1-1.8-2.4-2.8-3c-1.7-1.2-2-1.2-16.6-1.2h-14.8l1.8,2.7c2,3,3.7,7.5,4.2,11.2l0.4,2.4h6.2h6.2v91.3v91.3h-71.4H56.5l0.1-91.2l0.2-91.1l6.1-0.2l6.1-0.2l0.6-3c0.8-4.3,2.4-8,4.1-10.5c0.9-1.2,1.6-2.3,1.6-2.4s-6.7-0.3-14.8-0.3H45.8L43.9,31.6z"/><path fill="#000000" d="M158.4,114.2c-1.3,0.6-7.6,8-21.5,25.4C126,153.1,117,164,116.8,164c-0.2-0.1-3.3-3.5-7-7.7c-7.3-8.2-8.9-9.3-12.7-8.8c-5.5,0.6-8.8,6.3-6.3,11c1,1.8,20.6,23.8,22.3,24.9c0.7,0.5,2.3,1,3.5,1.1c4.4,0.5,4.7,0.2,29.9-31.2c25.8-32,25.1-31,23-35.5C167.4,113.8,162.4,112.1,158.4,114.2z"/></g></g></g>
</svg>