<?xml version="1.0" encoding="utf-8"?>
<!-- Svg Vector Icons : http://www.onlinewebfonts.com/icon -->
<!DOCTYPE svg PUBLIC "-//W3C//DTD SVG 1.1//EN" "http://www.w3.org/Graphics/SVG/1.1/DTD/svg11.dtd">
<svg version="1.1" xmlns="http://www.w3.org/2000/svg" xmlns:xlink="http://www.w3.org/1999/xlink" x="0px" y="0px" viewBox="0 0 256 256" enable-background="new 0 0 256 256" xml:space="preserve">
<metadata> Svg Vector Icons : http://www.onlinewebfonts.com/icon </metadata>
<g><g><g><path fill="#000000" d="M27.1,11c-7.8,1.5-14.8,8.5-16.5,16.5c-0.7,3.2-0.7,68.4,0,72c1.2,6,5.4,11.9,10.6,14.6c5.3,2.9,5.2,2.9,42.7,2.9c22.5,0,35-0.2,36.9-0.5c7.7-1.4,13.5-6.5,16.4-14.1c1-2.7,1-2.9,1.2-35.9c0.1-20.8,0-34.6-0.3-37c-1.1-9-7.1-15.9-15.7-18.2c-2.8-0.7-6.4-0.8-38.1-0.7C44.9,10.6,28.2,10.7,27.1,11z"/><path fill="#000000" d="M154.8,11c-8.3,1.6-15.4,9.2-16.6,17.7c-0.6,4.1-0.6,65.2,0,69.7c1.2,9,8.2,16.4,17.2,18c1.8,0.3,14.3,0.5,36.9,0.5c37.6,0,37.4,0,42.7-2.9c5.2-2.7,9.4-8.6,10.6-14.6c0.6-3.5,0.6-68.8,0-72c-1.7-8.2-8.8-15-17-16.5C225.5,10.4,157.7,10.4,154.8,11z"/><path fill="#000000" d="M28.5,137.7c-8.6,1-16.1,8-18,16.9c-0.7,3.2-0.7,69.9,0,73.4c1.6,8.4,8.6,15.4,17,17c1.6,0.3,15.4,0.5,36.9,0.5c37.5,0,37.7,0,42.6-2.7c5.6-3,9.9-9.4,10.9-16c0.6-4.2,0.6-66.1,0-70.7c-1.1-8.4-7.5-15.8-15.7-18.1c-1.6-0.4-10.7-0.6-36.4-0.6C46.9,137.4,30.1,137.6,28.5,137.7z"/><path fill="#000000" d="M156.1,137.7c-6.5,0.7-13.2,5.8-16.1,12c-2.3,4.8-2.4,7.2-2.2,44.1l0.1,33.9l1.1,3c2,5.6,5.8,10,10.7,12.5c4.3,2.2,5.3,2.3,41.9,2.3c21.5,0,35.3-0.2,36.9-0.5c6-1.2,12.3-5.8,14.9-11c2.5-5.1,2.6-5.2,2.6-42.6c0-23.4-0.2-35.2-0.5-36.9c-1.7-7.9-7.7-14.3-15.6-16.5c-1.6-0.5-10.7-0.6-36.4-0.6C174.6,137.5,157.8,137.6,156.1,137.7z"/></g></g></g>
</svg>