<?xml version="1.0" encoding="utf-8"?>
<!-- Svg Vector Icons : http://www.onlinewebfonts.com/icon -->
<!DOCTYPE svg PUBLIC "-//W3C//DTD SVG 1.1//EN" "http://www.w3.org/Graphics/SVG/1.1/DTD/svg11.dtd">
<svg version="1.1" xmlns="http://www.w3.org/2000/svg" xmlns:xlink="http://www.w3.org/1999/xlink" x="0px" y="0px" viewBox="0 0 256 256" enable-background="new 0 0 256 256" xml:space="preserve">
<metadata> Svg Vector Icons : http://www.onlinewebfonts.com/icon </metadata>
<g><g><path fill="#000000" d="M186.4,163.8l11.9,11.9L246,128l-47.7-47.7l-11.9,11.9l27.3,27.3H94.3v16.9h119.4L186.4,163.8z"/><path fill="#000000" d="M199.4,199.5c-19.1,19.1-44.5,29.6-71.5,29.6s-52.4-10.5-71.5-29.6C37.2,180.4,26.9,155,26.9,128s10.4-52.4,29.5-71.5c19.1-19.1,44.5-29.6,71.5-29.6s52.4,10.5,71.5,29.6c1.3,1.3,2.6,2.7,3.9,4.1h21.5C203.4,30,168,10,127.9,10C62.7,10,10,62.8,10,128c0,65.2,52.7,118,117.9,118c40.1,0,75.5-20,96.8-50.6h-21.5C202,196.8,200.7,198.2,199.4,199.5z"/></g></g>
</svg>