<?xml version="1.0" encoding="utf-8"?>
<!-- Svg Vector Icons : http://www.onlinewebfonts.com/icon -->
<!DOCTYPE svg PUBLIC "-//W3C//DTD SVG 1.1//EN" "http://www.w3.org/Graphics/SVG/1.1/DTD/svg11.dtd">
<svg version="1.1" xmlns="http://www.w3.org/2000/svg" xmlns:xlink="http://www.w3.org/1999/xlink" x="0px" y="0px" viewBox="0 0 256 256" enable-background="new 0 0 256 256" xml:space="preserve">
<metadata> Svg Vector Icons : http://www.onlinewebfonts.com/icon </metadata>
<g><g><g><path fill="#000000" d="M34.4,32.6c-9.3,1.6-17.7,8.1-21.7,16.8C9.9,55.6,10,52.6,10,128c0,60.9,0.1,69.1,0.7,72.2c1.9,9.2,7.7,16.6,16.1,20.7c6.6,3.2,0.5,3,101.2,3c100.7,0,94.6,0.2,101.2-3c8.4-4.1,14.2-11.5,16.1-20.7c0.6-3.1,0.7-11.3,0.7-72.2c0-76.1,0.1-72.6-3-79.1c-4.1-8.4-11.5-14.2-20.6-16.1c-3.1-0.6-13.2-0.7-94.7-0.7C77.5,32.2,35.6,32.4,34.4,32.6z M219.6,47.1c0.6,0.2,1,0.5,1,0.6c0,0.4-92.1,77.7-92.6,77.7c-0.6,0-91.6-77.9-91.5-78.3C36.8,46.8,218.1,46.7,219.6,47.1z M77.3,101.8c27.7,23.7,50.6,43,50.8,43c0.2-0.1,23.4-19.4,51.5-43c28.2-23.6,51.3-42.9,51.4-42.9c0.1,0,0.2,31.4,0.1,69.7l-0.1,69.7l-1.1,2.3c-1.5,2.9-4.3,5.7-7.2,7.2l-2.3,1.1H128H35.6l-2.3-1.1c-2.9-1.5-5.7-4.3-7.2-7.2l-1.1-2.3l-0.1-68.4c-0.1-37.7,0-69.4,0.1-70.4c0.3-1.8,0.4-1.9,1.1-1.3C26.5,58.4,49.6,78.1,77.3,101.8z"/></g></g></g>
</svg>