<?xml version="1.0" encoding="utf-8"?>
<!-- Svg Vector Icons : http://www.onlinewebfonts.com/icon -->
<!DOCTYPE svg PUBLIC "-//W3C//DTD SVG 1.1//EN" "http://www.w3.org/Graphics/SVG/1.1/DTD/svg11.dtd">
<svg version="1.1" xmlns="http://www.w3.org/2000/svg" xmlns:xlink="http://www.w3.org/1999/xlink" x="0px" y="0px" viewBox="0 0 256 256" enable-background="new 0 0 256 256" xml:space="preserve">
<metadata> Svg Vector Icons : http://www.onlinewebfonts.com/icon </metadata>
<g><g><path fill="#000000" d="M220.4,169.8c-4.5-0.8-8.1-4.4-8.1-8.9V87.1c0-16.9-6.5-33.2-18.4-45.9c-10.6-11.3-24.2-18.6-39-20.9c-1.3-4.2-3.6-8-6.7-11.3c-5.2-5.2-11.6-8.1-20.2-8.1c-8.5,0-14.9,2.9-20.1,8.2c-3.2,3.2-5.4,7.1-6.7,11.2c-14.7,2.3-28.4,9.5-39,20.9c-11.9,12.7-18.4,29-18.4,45.9v73.7c0,4.5-6.4,7.4-8.1,8.1c-17.4,5.2-25.6,17-25.6,32.6v4.3c0,10.3,8.4,18.7,18.6,18.7h62.6c3.2,17.3,18.4,30.5,36.7,30.5c18.2,0,33.5-13.2,36.7-30.6h62.9c10.3,0,18.6-8.4,18.6-18.7v-4.3C246,186,235,173,220.4,169.8z M127.8,236.5c-7.9,0-14.7-4.9-17.4-11.9l18.2,0h16.5C142.5,231.5,135.7,236.5,127.8,236.5z M227.4,205.9h-99.3l-99.5,0v-4.3c0-3.9,0.8-7.7,4.1-10.4c3.1-2.6,8.7-4.3,9.9-4.5c10.5-2.9,19.8-13.5,19.8-25.9V87.1c0-25.2,20.5-47.1,45.6-48.8c0.1,0,1-0.1,1.5-0.1h9.2l-0.2-9.5c-0.1-2.5,0.9-4.7,2.6-6.5c1.7-1.7,4.4-2.7,7-2.7c2.6,0,5.1,1,6.8,2.7c1.7,1.7,2.6,4,2.6,6.5l-0.2,9.5h9.2c0.5,0,1.5,0.1,1.5,0.1c25.2,1.7,45.7,23.6,45.7,48.8v73.7c0,12.3,8.4,22.8,19.8,25.9c1.5,0.3,6.4,2.1,9.4,4.6c3,2.4,4.6,6.3,4.6,10.3L227.4,205.9z"/></g></g>
</svg>